<?xml version="1.0" encoding="utf-8"?>
<!-- Generator: Adobe Illustrator 24.0.1, SVG Export Plug-In . SVG Version: 6.00 Build 0)  -->
<svg version="1.1" id="Layer_1" xmlns="http://www.w3.org/2000/svg" xmlns:xlink="http://www.w3.org/1999/xlink" x="0px" y="0px"
	 viewBox="0 0 901.5 137.8" style="enable-background:new 0 0 901.5 137.8;" xml:space="preserve">
<style type="text/css">
	.st0{fill:#545454;}
	.st1{fill:#EC1943;}
</style>
<path class="st0" d="M317.9,44.3c8.9-7,21.4-12.9,34.8-12.9c12.7,0,23.3,5.2,23.3,25v67.3h-17.7V60.6c0-11.3-5-14.4-13.7-14.4
	c-9.9,0-19.1,4.7-26.6,9v68.5h-17.7V2h9.7c6.8,0,8,1.6,8,11.8V44.3z"/>
<path class="st0" d="M408.2,81.7c0.9,21.6,10.6,29.7,27.7,29.7c11.7,0,19.7-3.8,25.2-8.3h5.7v12.3c-6.6,4.5-16.5,9.4-33.6,9.4
	c-27.8,0-43.3-17.7-43.3-46.3c0-29,17.9-47.1,41.6-47.1c24,0,38.1,14.1,38.1,44c0,2.4-0.2,5.6-0.2,6.3H408.2z M408.5,70H452
	c-0.3-19.7-8-26.4-20.5-26.4C419.6,43.6,410.4,50.7,408.5,70z"/>
<path class="st0" d="M534.8,113.7c-6.8,7.3-15,11.1-27.1,11.1c-16.5,0-28.5-9.4-28.5-27.1c0-18.6,14.8-27.7,35.3-27.7
	c7.8,0,13.6,0.9,19.8,2.4v-12c0-10.8-6.3-15.5-18.3-15.5c-10.8,0-19.1,3.3-24.9,7.5h-5.6V39.2c8-4,18.1-7.8,32.7-7.8
	c21.6,0,33.9,7.8,33.9,27.8v64.5h-7C538.3,123.8,535.9,121.8,534.8,113.7z M534.3,102.2V82.9c-5-1-10.6-1.7-16.9-1.7
	c-12.2,0-20.9,4.5-20.9,15.5c0,11.3,7.1,16,16.9,16C523,112.6,529.1,108.1,534.3,102.2z"/>
<path class="st0" d="M630.3,111.4c-6.3,7.5-16,13.4-28.5,13.4c-19,0-35.1-13.6-35.1-45.2c0-35.7,19.3-48.2,37.6-48.2
	c12.5,0,20,3.7,25.9,9.4V2h9.7c7,0,8,1.7,8,11.8v109.9h-11.7C632.2,123.8,630.8,121.7,630.3,111.4z M630.1,99.6V53.3
	c-5.2-4.9-11.5-7.7-20.9-7.7c-12,0-24.7,6.4-24.7,33c0,24.9,9.2,33,21.6,33C616.2,111.8,623.3,107.1,630.1,99.6z"/>
<path class="st0" d="M662.6,78.5c0-29,18.8-47.1,43.5-47.1s43.5,18.1,43.5,47.1c0,28.9-18.8,46.3-43.5,46.3S662.6,107.4,662.6,78.5z
	 M731.4,78.5c0-21.9-9.9-33.7-25.4-33.7c-15.3,0-25.4,11.8-25.4,33.7s10.1,32.9,25.4,32.9C721.5,111.4,731.4,100.5,731.4,78.5z"/>
<path class="st0" d="M821.7,102.4V32.8h17.7v91h-11.1c-4.2,0-5.9-1.4-6.4-10.3c-9,6.4-20.9,11.5-32.9,11.5
	c-14.3,0-24.9-5.9-24.9-24.3V32.8h17.7v63.8c0,11.7,5.7,14.4,14.1,14.4C805.1,111.1,814.4,106.7,821.7,102.4z"/>
<path class="st0" d="M851.7,32.5h11V7.9h10.7c5.5,0,7.2,2,7.2,9.7l-0.2,14.9h20.2V45h-20.2v53.5c0,9.7,4,12.5,13,12.5h8.2v11.5
	c-3.2,0.7-8.2,1.7-14.4,1.7c-15.4,0-24.4-6.5-24.4-23.4V45h-11V32.5z"/>
<path class="st1" d="M246.2,56.3c-18.3,34.3-63.6,51.4-110.3,51.4c-37.1,0-73.6-4.9-105.4-19C106.5,96.8,180.1,93.6,246.2,56.3z
	 M246.2,42c-22.2-6.6-42.2-8.5-62.9-8.3C130.8,34.1,77.7,49.9,30.8,70.6c37.3-33.1,92.8-57.2,148.4-57.2
	C205.7,13.4,236.2,24.7,246.2,42z M256.4,49.5C256.4,14.3,203.3,0,173,0C125.5,0,85.6,17.3,51.5,36.3c-2.1-3.8-5.1-4.5-9.8-5.1
	c-7-0.6-11.3-0.9-16.6-0.9c-5.8,0-14.5,0.4-21.3,1.5C0.5,32.4-0.6,35,0.3,39c3,10.9,7.5,20.7,13.4,29.9c-2.6,9-1.7,17.5,5.8,24.5
	c-2.6,10.5-3.4,22-3,32.4c0.6,4.3,2.8,5.5,6.4,4.9c13.4-2.1,26.4-6.8,37.7-12.8c2.8-1.5,4.1-3.2,4.9-5.3l33.1,5.1
	c5.1,5.5,10.2,10.2,16.4,15.4c4.1,3,8.5,4.7,13.9,4.7c24.1-0.2,44.4-3.8,61.2-10.2c6.6-2.1,11.5-10.9,18.8-23.2
	C225.1,96.2,256.4,80.8,256.4,49.5z"/>
</svg>
